<svg width="17" height="22" xmlns="http://www.w3.org/2000/svg" xmlns:xlink="http://www.w3.org/1999/xlink" xml:space="preserve" overflow="hidden"><g transform="translate(-494 -43)"><path d="M8.78435 15.906C5.10146 15.906 2.11538 16.5169 2.11538 17.2717 2.11538 17.7536 3.33512 18.1771 5.17719 18.4203 6.37365 18.5697 7.57858 18.6425 8.78435 18.6374 9.98944 18.6423 11.1936 18.5697 12.3894 18.4199 14.231 18.1771 15.4512 17.7536 15.4512 17.2717 15.4529 16.5173 12.4672 15.906 8.78435 15.906ZM8.70777 1.12835C12.746 1.12835 16.0185 4.39915 16.0185 8.43277 16.0185 12.466 12.746 15.7368 8.70777 15.7368 4.6695 15.7368 1.39658 12.4664 1.39658 8.43277 1.39658 4.39915 4.6695 1.12835 8.70777 1.12835Z" stroke="#FF6633" stroke-width="1.44185" fill="none" transform="matrix(1.00455 0 0 1 494 43)"/><path d="M12.3911 18.7085C11.1947 18.8583 9.99003 18.9309 8.78435 18.9259 7.57858 18.931 6.37365 18.8582 5.17719 18.7089 3.33554 18.4656 2.11538 18.0421 2.11538 17.5602L2.11538 19.8575C2.11538 20.6119 5.10104 21.2232 8.78435 21.2232 12.4672 21.2232 15.4529 20.6119 15.4529 19.858L15.4529 17.5602C15.4546 18.0421 14.2353 18.4656 12.3911 18.7089Z" stroke="#FF6633" stroke-width="1.44185" fill="none" transform="matrix(1.00455 0 0 1 494 43)"/><path d="M14.8915 15.3192C14.8915 15.5752 14.7709 15.7609 14.6744 15.8662 14.597 15.949 14.5063 16.0183 14.4062 16.0714 14.2598 16.151 14.0897 16.2047 13.9362 16.2449 13.6167 16.3287 13.1873 16.3968 12.6953 16.4513 11.701 16.5613 10.3463 16.6282 8.86304 16.6282 7.37973 16.6282 6.02504 16.5613 5.03081 16.4513 4.53835 16.3963 4.10892 16.3287 3.78992 16.2453 3.63635 16.2047 3.46627 16.1505 3.32031 16.0718 3.21997 16.0187 3.12918 15.9492 3.05165 15.8662 2.91322 15.7176 2.83575 15.5223 2.83462 15.3192L2.83462 13.2774 3.91346 13.8938C4.01542 13.9522 4.158 14.0081 4.33654 14.0474L4.33612 14.0478C5.05535 14.2018 5.91631 14.2458 6.76754 14.289L6.76754 14.2894C7.74485 14.3389 8.72723 14.3567 9.70877 14.3427L9.70919 14.3427C10.626 14.3309 11.5327 14.2962 12.4072 14.1985 12.6779 14.168 12.9703 14.1287 13.2372 14.0737 13.516 14.0161 13.7136 13.9518 13.8236 13.8926L14.8771 13.3273 14.8855 14.5225 14.8915 15.3137 14.8915 15.3192Z" stroke="#FF6633" stroke-width="1.44185" fill="none" transform="matrix(1.00455 0 0 1 494 43)"/><path d="M1.15669 0 1.15669 2.17715M2.24612 1.08858 0.0668462 1.08858" stroke="#FF6633" stroke-width="0.611346" fill="none" transform="matrix(1.00455 0 0 1 494 43)"/><path d="M5.5275 8.69381 5.5275 11.2145M6.78827 9.95373 4.26546 9.95373" stroke="#FF6633" stroke-width="0.707808" fill="none" transform="matrix(1.00455 0 0 1 494 43)"/><path d="M11.5102 5.57446 11.5102 7.33108M12.3885 6.45277 10.6307 6.45277" stroke="#FF6633" stroke-width="0.493308" fill="none" transform="matrix(1.00455 0 0 1 494 43)"/></g></svg>